<svg width="100%" height="100%" viewBox="0 0 800 600" preserveAspectRatio="none" xmlns="http://www.w3.org/2000/svg">
  <rect width="100%" height="100%" fill="#0A1A0A"/>

  <!-- Ruta principal extendida -->
  <path d="M50 100 H150 V200 H250 V150 H350 V250 H450 V300 H550 V200 H650 V100 H750" stroke="#4AA93F" stroke-width="3" fill="none"/>

  <!-- Microchip -->
  <rect x="340" y="230" width="40" height="40" fill="#223322" stroke="#D9A441" stroke-width="2"/>
  <path d="M350 230 V210" stroke="#D9A441" stroke-width="2"/>
  <path d="M380 230 V210" stroke="#D9A441" stroke-width="2"/>
  <path d="M350 270 V290" stroke="#D9A441" stroke-width="2"/>
  <path d="M380 270 V290" stroke="#D9A441" stroke-width="2"/>

  <!-- Capacitores arriba -->
  <g stroke="#88C0D0" stroke-width="4">
    <line x1="150" y1="200" x2="150" y2="220"/>
    <line x1="160" y1="200" x2="160" y2="220"/>
  </g>
  <g stroke="#88C0D0" stroke-width="4">
    <line x1="650" y1="100" x2="650" y2="120"/>
    <line x1="660" y1="100" x2="660" y2="120"/>
  </g>

  <!-- Resistencias arriba -->
  <rect x="250" y="140" width="20" height="10" fill="#AA7744" stroke="#D9A441" stroke-width="1"/>
  <rect x="550" y="190" width="20" height="10" fill="#AA7744" stroke="#D9A441" stroke-width="1"/>

  <!-- Ramas y conexiones extras abajo derecha -->
  <path d="M150 220 H160 V300 H200 V350 H280 V400 H350" stroke="#4AA93F" stroke-width="2" fill="none"/>
  <path d="M380 290 H400 V350 H500 V450 H600 V500" stroke="#4AA93F" stroke-width="2" fill="none"/>
  <path d="M200 300 V500 H600" stroke="#4AA93F" stroke-width="2" fill="none"/>

  <!-- Nuevas líneas hacia abajo a la derecha -->
  <path d="M600 500 H620 V550 H650 V580 H700" stroke="#4AA93F" stroke-width="2" fill="none"/>
  <path d="M650 580 V530" stroke="#4AA93F" stroke-width="2" fill="none"/>
  <path d="M620 550 V510" stroke="#4AA93F" stroke-width="2" fill="none"/>

  <!-- Nuevos capacitores abajo derecha -->
  <g stroke="#88C0D0" stroke-width="4">
    <line x1="650" y1="530" x2="650" y2="550"/>
    <line x1="660" y1="530" x2="660" y2="550"/>
  </g>

  <!-- Nuevas resistencias abajo derecha -->
  <rect x="600" y="510" width="20" height="10" fill="#AA7744" stroke="#D9A441" stroke-width="1"/>
  <rect x="680" y="570" width="20" height="10" fill="#AA7744" stroke="#D9A441" stroke-width="1"/>

  <!-- Puntos de conexión -->
  <circle cx="50" cy="100" r="4" fill="#D9A441"/>
  <circle cx="750" cy="100" r="4" fill="#D9A441"/>
  <circle cx="600" cy="500" r="4" fill="#D9A441"/>
  <circle cx="700" cy="580" r="4" fill="#D9A441"/>

  <!-- Extensión líneas izquierda -->
  <path d="M50 100 V300 H100 V350 H140 V400" stroke="#4AA93F" stroke-width="2" fill="none"/>

  <!-- Líneas abajo y centro -->
  <path d="M140 400 H280 V450 H340 V480 H400 V520 H480 V560 H540" stroke="#4AA93F" stroke-width="2" fill="none"/>

  <!-- Capacitores extra abajo -->
  <g stroke="#88C0D0" stroke-width="4">
    <line x1="280" y1="450" x2="280" y2="470"/>
    <line x1="290" y1="450" x2="290" y2="470"/>
  </g>

  <g stroke="#88C0D0" stroke-width="4">
    <line x1="480" y1="560" x2="480" y2="580"/>
    <line x1="490" y1="560" x2="490" y2="580"/>
  </g>

  <!-- Resistencias extra abajo -->
  <rect x="340" y="470" width="20" height="10" fill="#AA7744" stroke="#D9A441" stroke-width="1"/>
  <rect x="520" y="540" width="20" height="10" fill="#AA7744" stroke="#D9A441" stroke-width="1"/>

  <!-- Extensión líneas derecha abajo -->
  <path d="M700 580 H740 V600" stroke="#4AA93F" stroke-width="2" fill="none"/>
  <circle cx="740" cy="600" r="4" fill="#D9A441"/>

  <!-- Línea horizontal superior -->
  <path d="M750 100 V200 H780" stroke="#4AA93F" stroke-width="2" fill="none"/>
  <circle cx="780" cy="200" r="4" fill="#D9A441"/>
</svg>
